<svg width="14" height="16" viewBox="0 0 14 16" fill="none" xmlns="http://www.w3.org/2000/svg">
<g id="Group">
<path id="Vector" fill-rule="evenodd" clip-rule="evenodd" d="M3.62695 3.5H8.97295C9.64363 3.50099 10.2865 3.76812 10.7604 4.24271C11.2343 4.7173 11.5005 5.36057 11.5005 6.03125V13.0625C12.0972 13.0625 12.6695 12.8254 13.0914 12.4035C13.5134 11.9815 13.7505 11.4092 13.7505 10.8125V3.581C13.7505 2.45225 12.9067 1.47275 11.7525 1.376C11.5843 1.36234 11.416 1.34984 11.2477 1.3385C11.0579 0.972716 10.7712 0.666099 10.419 0.452106C10.0668 0.238112 9.66257 0.124962 9.25045 0.125H8.12545C7.71334 0.124962 7.30912 0.238112 6.95692 0.452106C6.60472 0.666099 6.31805 0.972716 6.1282 1.3385C5.95945 1.34975 5.7907 1.3625 5.62345 1.376C4.49695 1.47125 3.66595 2.4065 3.62695 3.5ZM8.12545 1.25C7.82708 1.25 7.54094 1.36853 7.32996 1.5795C7.11898 1.79048 7.00045 2.07663 7.00045 2.375H10.3755C10.3755 2.07663 10.2569 1.79048 10.0459 1.5795C9.83497 1.36853 9.54882 1.25 9.25045 1.25H8.12545Z" fill="url(#paint0_linear_677_151)"/>
<path id="Vector_2" fill-rule="evenodd" clip-rule="evenodd" d="M0.25 6.03125C0.25 5.25425 0.88 4.625 1.65625 4.625H8.96875C9.74575 4.625 10.375 5.255 10.375 6.03125V14.4688C10.375 15.245 9.745 15.875 8.96875 15.875H1.65625C1.28329 15.875 0.925604 15.7268 0.661881 15.4631C0.398158 15.1994 0.25 14.8417 0.25 14.4688V6.03125ZM7.4395 9.47675C7.53279 9.36019 7.57595 9.21134 7.5595 9.06295C7.54304 8.91456 7.46831 8.77879 7.35175 8.6855C7.23519 8.59221 7.08634 8.54905 6.93795 8.5655C6.78956 8.58196 6.65379 8.65669 6.5605 8.77325L4.7035 11.0953L4.0225 10.415C3.91587 10.3156 3.77483 10.2615 3.62911 10.2641C3.48338 10.2667 3.34434 10.3257 3.24128 10.4288C3.13822 10.5318 3.07919 10.6709 3.07662 10.8166C3.07405 10.9623 3.12814 11.1034 3.2275 11.21L4.3525 12.335C4.40845 12.3909 4.47557 12.4344 4.54947 12.4627C4.62337 12.4909 4.7024 12.5032 4.78139 12.4988C4.86038 12.4944 4.93756 12.4734 5.00788 12.4372C5.0782 12.401 5.14009 12.3503 5.1895 12.2885L7.4395 9.47675Z" fill="url(#paint1_linear_677_151)"/>
</g>
<defs>
<linearGradient id="paint0_linear_677_151" x1="8.6887" y1="0.125" x2="8.6887" y2="13.0625" gradientUnits="userSpaceOnUse">
<stop stop-color="#F8A11E"/>
<stop offset="1" stop-color="#F8861E"/>
</linearGradient>
<linearGradient id="paint1_linear_677_151" x1="5.3125" y1="4.625" x2="5.3125" y2="15.875" gradientUnits="userSpaceOnUse">
<stop stop-color="#F8A11E"/>
<stop offset="1" stop-color="#F8861E"/>
</linearGradient>
</defs>
</svg>
