<svg width="14" height="16" viewBox="0 0 14 16" fill="none" xmlns="http://www.w3.org/2000/svg">
<g id="Group">
<path id="Vector" fill-rule="evenodd" clip-rule="evenodd" d="M3.62646 3.5H8.97247C9.64314 3.50099 10.286 3.76812 10.7599 4.24271C11.2338 4.7173 11.5 5.36057 11.5 6.03125V13.0625C12.0967 13.0625 12.669 12.8254 13.091 12.4035C13.5129 11.9815 13.75 11.4092 13.75 10.8125V3.581C13.75 2.45225 12.9062 1.47275 11.752 1.376C11.5838 1.36234 11.4155 1.34984 11.2472 1.3385C11.0574 0.972716 10.7707 0.666099 10.4185 0.452106C10.0663 0.238112 9.66208 0.124962 9.24996 0.125H8.12496C7.71285 0.124962 7.30864 0.238112 6.95643 0.452106C6.60423 0.666099 6.31756 0.972716 6.12771 1.3385C5.95896 1.34975 5.79021 1.3625 5.62296 1.376C4.49646 1.47125 3.66546 2.4065 3.62646 3.5ZM8.12496 1.25C7.8266 1.25 7.54045 1.36853 7.32947 1.5795C7.11849 1.79048 6.99996 2.07663 6.99996 2.375H10.375C10.375 2.07663 10.2564 1.79048 10.0455 1.5795C9.83448 1.36853 9.54833 1.25 9.24996 1.25H8.12496Z" fill="#718096"/>
<path id="Vector_2" fill-rule="evenodd" clip-rule="evenodd" d="M0.25 6.03125C0.25 5.25425 0.88 4.625 1.65625 4.625H8.96875C9.74575 4.625 10.375 5.255 10.375 6.03125V14.4688C10.375 15.245 9.745 15.875 8.96875 15.875H1.65625C1.28329 15.875 0.925604 15.7268 0.661881 15.4631C0.398158 15.1994 0.25 14.8417 0.25 14.4688V6.03125ZM7.4395 9.47675C7.53279 9.36019 7.57595 9.21134 7.5595 9.06295C7.54304 8.91456 7.46831 8.77879 7.35175 8.6855C7.23519 8.59221 7.08634 8.54905 6.93795 8.5655C6.78956 8.58196 6.65379 8.65669 6.5605 8.77325L4.7035 11.0953L4.0225 10.415C3.91587 10.3156 3.77483 10.2615 3.62911 10.2641C3.48338 10.2667 3.34434 10.3257 3.24128 10.4288C3.13822 10.5318 3.07919 10.6709 3.07662 10.8166C3.07405 10.9623 3.12814 11.1034 3.2275 11.21L4.3525 12.335C4.40845 12.3909 4.47557 12.4344 4.54947 12.4627C4.62337 12.4909 4.7024 12.5032 4.78139 12.4988C4.86038 12.4944 4.93756 12.4734 5.00788 12.4372C5.0782 12.401 5.14009 12.3503 5.1895 12.2885L7.4395 9.47675Z" fill="#718096"/>
</g>
</svg>
