<svg width="18" height="18" viewBox="0 0 18 18" fill="none" xmlns="http://www.w3.org/2000/svg">
<g id="ic:round-dashboard">
<path id="Vector" d="M3 9.75H7.5C7.9125 9.75 8.25 9.4125 8.25 9V3C8.25 2.5875 7.9125 2.25 7.5 2.25H3C2.5875 2.25 2.25 2.5875 2.25 3V9C2.25 9.4125 2.5875 9.75 3 9.75ZM3 15.75H7.5C7.9125 15.75 8.25 15.4125 8.25 15V12C8.25 11.5875 7.9125 11.25 7.5 11.25H3C2.5875 11.25 2.25 11.5875 2.25 12V15C2.25 15.4125 2.5875 15.75 3 15.75ZM10.5 15.75H15C15.4125 15.75 15.75 15.4125 15.75 15V9C15.75 8.5875 15.4125 8.25 15 8.25H10.5C10.0875 8.25 9.75 8.5875 9.75 9V15C9.75 15.4125 10.0875 15.75 10.5 15.75ZM9.75 3V6C9.75 6.4125 10.0875 6.75 10.5 6.75H15C15.4125 6.75 15.75 6.4125 15.75 6V3C15.75 2.5875 15.4125 2.25 15 2.25H10.5C10.0875 2.25 9.75 2.5875 9.75 3Z" fill="url(#paint0_linear_138_342)"/>
</g>
<defs>
<linearGradient id="paint0_linear_138_342" x1="9" y1="2.25" x2="9" y2="15.75" gradientUnits="userSpaceOnUse">
<stop stop-color="#F8A11E"/>
<stop offset="1" stop-color="#F8861E"/>
</linearGradient>
</defs>
</svg>
