<svg width="16" height="16" viewBox="0 0 16 16" fill="none" xmlns="http://www.w3.org/2000/svg">
<g id="Group">
<path id="Vector" d="M6.84798 5.55942C7.01823 5.42442 7.22073 5.32617 7.43748 5.26392V7.36017C7.22353 7.30158 7.02321 7.20142 6.84798 7.06542C6.55248 6.83067 6.43848 6.55467 6.43848 6.31242C6.43848 6.07017 6.55248 5.79417 6.84798 5.55942ZM8.56248 10.7464V8.62842C8.82273 8.69217 9.06048 8.79942 9.25323 8.94417C9.57348 9.18417 9.68748 9.45867 9.68748 9.68742C9.68748 9.91617 9.57348 10.1907 9.25323 10.4307C9.0465 10.5811 8.81157 10.6889 8.56248 10.7464Z" fill="url(#paint0_linear_607_61)"/>
<path id="Vector_2" fill-rule="evenodd" clip-rule="evenodd" d="M8 0.6875C3.96125 0.6875 0.6875 3.96125 0.6875 8C0.6875 12.0387 3.96125 15.3125 8 15.3125C12.0387 15.3125 15.3125 12.0387 15.3125 8C15.3125 3.96125 12.0387 0.6875 8 0.6875ZM8.5625 3.5C8.5625 3.35082 8.50324 3.20774 8.39775 3.10225C8.29226 2.99676 8.14918 2.9375 8 2.9375C7.85082 2.9375 7.70774 2.99676 7.60225 3.10225C7.49676 3.20774 7.4375 3.35082 7.4375 3.5V4.112C6.96715 4.19115 6.52385 4.38599 6.1475 4.679C5.6135 5.1035 5.3135 5.6915 5.3135 6.3125C5.3135 6.93425 5.6135 7.5215 6.14825 7.946C6.52475 8.246 6.97475 8.43125 7.4375 8.513V10.7465C7.18836 10.6888 6.95343 10.5814 6.74675 10.4307L6.0875 9.93575C6.02841 9.89143 5.96116 9.85918 5.8896 9.84085C5.81804 9.82252 5.74358 9.81846 5.67045 9.8289C5.52277 9.85 5.38951 9.9289 5.3 10.0483C5.21049 10.1676 5.17206 10.3176 5.19315 10.4653C5.21425 10.613 5.29315 10.7462 5.4125 10.8358L6.07175 11.3307C6.4715 11.6307 6.9485 11.8145 7.4375 11.8932V12.5C7.4375 12.6492 7.49676 12.7923 7.60225 12.8977C7.70774 13.0032 7.85082 13.0625 8 13.0625C8.14918 13.0625 8.29226 13.0032 8.39775 12.8977C8.50324 12.7923 8.5625 12.6492 8.5625 12.5V11.8925C9.05643 11.8183 9.52503 11.6255 9.92825 11.3307C10.487 10.9115 10.8125 10.3228 10.8125 9.6875C10.8125 9.05225 10.487 8.4635 9.92825 8.04425C9.52514 7.74915 9.05651 7.55614 8.5625 7.48175V5.2655C8.78 5.327 8.98175 5.42525 9.152 5.56025L9.46325 5.80775C9.58011 5.90054 9.72905 5.94311 9.8773 5.92609C10.0255 5.90907 10.161 5.83386 10.2537 5.717C10.3465 5.60014 10.3891 5.4512 10.3721 5.30296C10.3551 5.15471 10.2799 5.01929 10.163 4.9265L9.85175 4.679C9.47554 4.38637 9.03252 4.19179 8.5625 4.11275V3.5Z" fill="url(#paint1_linear_607_61)"/>
</g>
<defs>
<linearGradient id="paint0_linear_607_61" x1="8.06298" y1="5.26392" x2="8.06298" y2="10.7464" gradientUnits="userSpaceOnUse">
<stop stop-color="#F8A11E"/>
<stop offset="1" stop-color="#F8861E"/>
</linearGradient>
<linearGradient id="paint1_linear_607_61" x1="8" y1="0.6875" x2="8" y2="15.3125" gradientUnits="userSpaceOnUse">
<stop stop-color="#F8A11E"/>
<stop offset="1" stop-color="#F8861E"/>
</linearGradient>
</defs>
</svg>
