<svg width="18" height="18" viewBox="0 0 18 18" fill="none" xmlns="http://www.w3.org/2000/svg">
<path fill-rule="evenodd" clip-rule="evenodd" d="M8.9999 1.80005C6.9875 1.80005 5.0129 1.96205 3.0869 2.27165C1.7936 2.47955 0.899902 3.61265 0.899902 4.88345V9.51665C0.899902 10.7884 1.7936 11.9197 3.0869 12.1285C4.1381 12.2977 5.2037 12.4228 6.2819 12.5011C6.5339 12.5191 6.7508 12.6631 6.8597 12.8728L8.4014 15.8365C8.45846 15.9459 8.54443 16.0375 8.64995 16.1015C8.75547 16.1655 8.8765 16.1993 8.9999 16.1993C9.1233 16.1993 9.24434 16.1655 9.34986 16.1015C9.45538 16.0375 9.54134 15.9459 9.5984 15.8365L11.1401 12.8728C11.1967 12.7666 11.2795 12.6768 11.3806 12.6117C11.4818 12.5467 11.5979 12.5086 11.7179 12.5011C12.7878 12.4232 13.8538 12.2989 14.9129 12.1285C16.2062 11.9206 17.0999 10.7875 17.0999 9.51665V4.88345C17.0999 3.61175 16.2062 2.48045 14.9129 2.27165C12.9576 1.95714 10.9803 1.79944 8.9999 1.80005ZM6.0749 5.40005C5.89588 5.40005 5.72419 5.47117 5.59761 5.59775C5.47102 5.72434 5.3999 5.89603 5.3999 6.07505C5.3999 6.25407 5.47102 6.42576 5.59761 6.55235C5.72419 6.67894 5.89588 6.75005 6.0749 6.75005H11.9249C12.1039 6.75005 12.2756 6.67894 12.4022 6.55235C12.5288 6.42576 12.5999 6.25407 12.5999 6.07505C12.5999 5.89603 12.5288 5.72434 12.4022 5.59775C12.2756 5.47117 12.1039 5.40005 11.9249 5.40005H6.0749ZM6.0749 7.65005C5.89588 7.65005 5.72419 7.72117 5.59761 7.84775C5.47102 7.97434 5.3999 8.14603 5.3999 8.32505C5.3999 8.50407 5.47102 8.67576 5.59761 8.80235C5.72419 8.92893 5.89588 9.00005 6.0749 9.00005H9.2249C9.40392 9.00005 9.57561 8.92893 9.7022 8.80235C9.82879 8.67576 9.8999 8.50407 9.8999 8.32505C9.8999 8.14603 9.82879 7.97434 9.7022 7.84775C9.57561 7.72117 9.40392 7.65005 9.2249 7.65005H6.0749Z" fill="#718096"/>
</svg>
