<svg width="14" height="14" viewBox="0 0 14 14" fill="none" xmlns="http://www.w3.org/2000/svg">
<g id="Group">
<path id="Vector" fill-rule="evenodd" clip-rule="evenodd" d="M3.99317 10.2971C4.73167 10.7579 5.60901 10.9854 6.41634 11.0572V12.2501C6.41634 12.4048 6.4778 12.5532 6.5872 12.6626C6.69659 12.772 6.84496 12.8334 6.99967 12.8334C7.15438 12.8334 7.30276 12.772 7.41215 12.6626C7.52155 12.5532 7.58301 12.4048 7.58301 12.2501V11.0572C8.38976 10.9848 9.26767 10.7573 10.0062 10.2971C10.9564 9.705 11.6663 8.72675 11.6663 7.29175C11.6663 5.78441 10.8427 4.27008 9.92801 3.16466C9.46367 2.6035 8.95384 2.1205 8.47026 1.77341C8.01526 1.44616 7.48559 1.16675 6.99967 1.16675C6.51376 1.16675 5.98467 1.44616 5.52909 1.77341C5.04492 2.12108 4.53509 2.6035 4.07076 3.16466C3.15726 4.2695 2.33301 5.78441 2.33301 7.29175C2.33301 8.72675 3.04292 9.705 3.99317 10.2971ZM4.96967 3.90841C4.13434 4.91758 3.49967 6.17408 3.49967 7.29175C3.49967 8.27291 3.95642 8.89941 4.61034 9.30716C5.13126 9.6315 5.78109 9.81583 6.41634 9.88466V8.40883L5.42059 7.4125C5.36488 7.35869 5.32044 7.29432 5.28986 7.22315C5.25929 7.15198 5.2432 7.07544 5.24253 6.99798C5.24185 6.92053 5.25661 6.84371 5.28595 6.77202C5.31528 6.70034 5.35859 6.63521 5.41336 6.58043C5.46813 6.52566 5.53326 6.48235 5.60495 6.45302C5.67664 6.42369 5.75345 6.40893 5.83091 6.4096C5.90836 6.41027 5.98491 6.42637 6.05608 6.45694C6.12725 6.48751 6.19161 6.53195 6.24542 6.58766L6.92501 7.26725L7.98317 5.78558C8.02772 5.72323 8.08411 5.67025 8.14913 5.62969C8.21415 5.58913 8.28652 5.56177 8.36211 5.54918C8.4377 5.53658 8.51503 5.539 8.58968 5.55629C8.66434 5.57358 8.73486 5.60541 8.79722 5.64996C8.85957 5.6945 8.91254 5.75089 8.95311 5.81591C8.99367 5.88093 9.02103 5.9533 9.03362 6.02889C9.04622 6.10448 9.0438 6.18181 9.02651 6.25647C9.00921 6.33112 8.97739 6.40164 8.93284 6.464L7.58301 8.354V9.88466C8.21884 9.81583 8.86809 9.6315 9.38901 9.30716C10.0429 8.89883 10.4997 8.27291 10.4997 7.29175C10.4997 6.17408 9.86501 4.91758 9.02967 3.90841C8.61842 3.41258 8.18034 3.00133 7.78951 2.72075C7.36951 2.41858 7.09709 2.33341 6.99967 2.33341C6.90226 2.33341 6.62984 2.41858 6.20984 2.72075C5.81901 3.00133 5.38092 3.412 4.96967 3.90841Z" fill="white"/>
</g>
</svg>
