<svg width="64" height="64" viewBox="0 0 64 64" fill="none" xmlns="http://www.w3.org/2000/svg">
	<circle cx="32" cy="32" r="32" fill="url(#paint0_linear_88_254)" />
	<path fill-rule="evenodd" clip-rule="evenodd"
		d="M23.41 41.4199C25.52 42.7366 28.0266 43.3866 30.3333 43.5916V46.9999C30.3333 47.4419 30.5089 47.8659 30.8214 48.1784C31.134 48.491 31.5579 48.6666 32 48.6666C32.442 48.6666 32.8659 48.491 33.1785 48.1784C33.491 47.8659 33.6666 47.4419 33.6666 46.9999V43.5916C35.9716 43.3849 38.48 42.7349 40.59 41.4199C43.305 39.7283 45.3333 36.9333 45.3333 32.8333C45.3333 28.5266 42.98 24.1999 40.3666 21.0416C39.04 19.4383 37.5833 18.0583 36.2016 17.0666C34.9016 16.1316 33.3883 15.3333 32 15.3333C30.6116 15.3333 29.1 16.1316 27.7983 17.0666C26.415 18.0599 24.9583 19.4383 23.6316 21.0416C21.0216 24.1983 18.6666 28.5266 18.6666 32.8333C18.6666 36.9333 20.695 39.7283 23.41 41.4199ZM26.2 23.1666C23.8133 26.0499 22 29.6399 22 32.8333C22 35.6366 23.305 37.4266 25.1733 38.5916C26.6616 39.5183 28.5183 40.0449 30.3333 40.2416V36.0249L27.4883 33.1783C27.3291 33.0245 27.2021 32.8406 27.1148 32.6373C27.0274 32.4339 26.9815 32.2152 26.9795 31.9939C26.9776 31.7726 27.0198 31.5532 27.1036 31.3483C27.1874 31.1435 27.3111 30.9574 27.4676 30.8009C27.6241 30.6444 27.8102 30.5207 28.015 30.4369C28.2199 30.3531 28.4393 30.3109 28.6606 30.3128C28.8819 30.3148 29.1006 30.3607 29.304 30.4481C29.5073 30.5354 29.6912 30.6624 29.845 30.8216L31.7866 32.7633L34.81 28.5299C34.9372 28.3518 35.0983 28.2004 35.2841 28.0845C35.4699 27.9686 35.6766 27.8905 35.8926 27.8545C36.1086 27.8185 36.3295 27.8254 36.5428 27.8748C36.7561 27.9242 36.9576 28.0151 37.1358 28.1424C37.314 28.2697 37.4653 28.4308 37.5812 28.6166C37.6971 28.8023 37.7753 29.0091 37.8112 29.2251C37.8472 29.4411 37.8403 29.662 37.7909 29.8753C37.7415 30.0886 37.6506 30.2901 37.5233 30.4683L33.6666 35.8683V40.2416C35.4833 40.0449 37.3383 39.5183 38.8266 38.5916C40.695 37.4249 42 35.6366 42 32.8333C42 29.6399 40.1866 26.0499 37.8 23.1666C36.625 21.7499 35.3733 20.5749 34.2566 19.7733C33.0566 18.9099 32.2783 18.6666 32 18.6666C31.7216 18.6666 30.9433 18.9099 29.7433 19.7733C28.6266 20.5749 27.375 21.7483 26.2 23.1666Z"
		fill="white" />
	<defs>
		<linearGradient id="paint0_linear_88_254" x1="32" y1="0" x2="32" y2="64"
			gradientUnits="userSpaceOnUse">
			<stop stop-color="#F8A11E" />
			<stop offset="1" stop-color="#F8861E" />
		</linearGradient>
	</defs>
</svg>
