<svg width="64" height="64" viewBox="0 0 64 64" fill="none" xmlns="http://www.w3.org/2000/svg">
<circle cx="32" cy="32" r="32" fill="url(#paint0_linear_75_1577)"/>
<path fill-rule="evenodd" clip-rule="evenodd" d="M23.4101 41.4199C25.5201 42.7366 28.0267 43.3866 30.3334 43.5916V46.9999C30.3334 47.4419 30.509 47.8659 30.8216 48.1784C31.1341 48.491 31.5581 48.6666 32.0001 48.6666C32.4421 48.6666 32.866 48.491 33.1786 48.1784C33.4912 47.8659 33.6667 47.4419 33.6667 46.9999V43.5916C35.9717 43.3849 38.4801 42.7349 40.5901 41.4199C43.3051 39.7283 45.3334 36.9333 45.3334 32.8333C45.3334 28.5266 42.9801 24.1999 40.3667 21.0416C39.0401 19.4383 37.5834 18.0583 36.2017 17.0666C34.9017 16.1316 33.3884 15.3333 32.0001 15.3333C30.6117 15.3333 29.1001 16.1316 27.7984 17.0666C26.4151 18.0599 24.9584 19.4383 23.6317 21.0416C21.0217 24.1983 18.6667 28.5266 18.6667 32.8333C18.6667 36.9333 20.6951 39.7283 23.4101 41.4199ZM26.2001 23.1666C23.8134 26.0499 22.0001 29.6399 22.0001 32.8333C22.0001 35.6366 23.3051 37.4266 25.1734 38.5916C26.6617 39.5183 28.5184 40.0449 30.3334 40.2416V36.0249L27.4884 33.1783C27.3292 33.0245 27.2023 32.8406 27.1149 32.6373C27.0276 32.4339 26.9816 32.2152 26.9797 31.9939C26.9777 31.7726 27.0199 31.5532 27.1037 31.3483C27.1875 31.1435 27.3113 30.9574 27.4678 30.8009C27.6242 30.6444 27.8103 30.5207 28.0152 30.4369C28.22 30.3531 28.4395 30.3109 28.6607 30.3128C28.882 30.3148 29.1007 30.3607 29.3041 30.4481C29.5074 30.5354 29.6913 30.6624 29.8451 30.8216L31.7867 32.7633L34.8101 28.5299C34.9374 28.3518 35.0985 28.2004 35.2842 28.0845C35.47 27.9686 35.6768 27.8905 35.8927 27.8545C36.1087 27.8185 36.3297 27.8254 36.543 27.8748C36.7563 27.9242 36.9578 28.0151 37.1359 28.1424C37.3141 28.2697 37.4654 28.4308 37.5813 28.6166C37.6972 28.8023 37.7754 29.0091 37.8114 29.2251C37.8473 29.4411 37.8404 29.662 37.791 29.8753C37.7416 30.0886 37.6507 30.2901 37.5234 30.4683L33.6667 35.8683V40.2416C35.4834 40.0449 37.3384 39.5183 38.8267 38.5916C40.6951 37.4249 42.0001 35.6366 42.0001 32.8333C42.0001 29.6399 40.1867 26.0499 37.8001 23.1666C36.6251 21.7499 35.3734 20.5749 34.2567 19.7733C33.0567 18.9099 32.2784 18.6666 32.0001 18.6666C31.7217 18.6666 30.9434 18.9099 29.7434 19.7733C28.6267 20.5749 27.3751 21.7483 26.2001 23.1666Z" fill="white"/>
<defs>
<linearGradient id="paint0_linear_75_1577" x1="32" y1="0" x2="32" y2="64" gradientUnits="userSpaceOnUse">
<stop stop-color="#F8A11E"/>
<stop offset="1" stop-color="#F8861E"/>
</linearGradient>
</defs>
</svg>
