<svg width="32" height="32" viewBox="0 0 32 32" fill="none" xmlns="http://www.w3.org/2000/svg">
<rect width="32" height="32" rx="10" fill="#D4D5DB" fill-opacity="0.4"/>
<path d="M23.1902 19.3324C23.1254 19.2543 23.0617 19.1762 22.9992 19.1008C22.1398 18.0613 21.6199 17.434 21.6199 14.4914C21.6199 12.968 21.2554 11.718 20.5371 10.7805C20.0074 10.0879 19.2914 9.5625 18.3476 9.17422C18.3355 9.16746 18.3246 9.1586 18.3156 9.14805C17.9761 8.01133 17.0472 7.25 15.9996 7.25C14.9519 7.25 14.0234 8.01133 13.684 9.14687C13.6749 9.15704 13.6642 9.16562 13.6523 9.17227C11.45 10.0789 10.3797 11.8184 10.3797 14.4902C10.3797 17.434 9.86052 18.0613 9.00037 19.0996C8.93787 19.175 8.8742 19.2516 8.80935 19.3313C8.64185 19.5333 8.53573 19.779 8.50354 20.0394C8.47135 20.2999 8.51444 20.5641 8.62771 20.8008C8.86873 21.3086 9.3824 21.6238 9.96873 21.6238H22.0347C22.6183 21.6238 23.1285 21.309 23.3703 20.8035C23.4841 20.5668 23.5276 20.3023 23.4956 20.0416C23.4637 19.7809 23.3577 19.5348 23.1902 19.3324ZM15.9996 24.75C16.5641 24.7495 17.1179 24.5963 17.6023 24.3066C18.0867 24.0168 18.4837 23.6014 18.7512 23.1043C18.7637 23.0805 18.77 23.0538 18.7692 23.0269C18.7685 22.9999 18.7607 22.9736 18.7468 22.9506C18.7329 22.9275 18.7133 22.9084 18.6898 22.8952C18.6663 22.8819 18.6398 22.875 18.6129 22.875H13.3871C13.3601 22.8749 13.3336 22.8818 13.31 22.895C13.2865 22.9082 13.2668 22.9273 13.2528 22.9504C13.2389 22.9735 13.2311 22.9998 13.2304 23.0268C13.2296 23.0537 13.2358 23.0804 13.2484 23.1043C13.5158 23.6013 13.9127 24.0167 14.3971 24.3065C14.8814 24.5962 15.4352 24.7495 15.9996 24.75Z" fill="#2D3748"/>
</svg>
