<svg width="18" height="18" viewBox="0 0 18 18" fill="none" xmlns="http://www.w3.org/2000/svg">
<path d="M15.3002 2.47505C15.3002 2.29603 15.2291 2.12434 15.1025 1.99775C14.9759 1.87116 14.8042 1.80005 14.6252 1.80005C14.4462 1.80005 14.2745 1.87116 14.1479 1.99775C14.0213 2.12434 13.9502 2.29603 13.9502 2.47505V7.42505C13.9502 7.60407 14.0213 7.77576 14.1479 7.90235C14.2745 8.02893 14.4462 8.10005 14.6252 8.10005C14.8042 8.10005 14.9759 8.02893 15.1025 7.90235C15.2291 7.77576 15.3002 7.60407 15.3002 7.42505V2.47505ZM15.3002 14.175C15.3002 13.996 15.2291 13.8243 15.1025 13.6978C14.9759 13.5712 14.8042 13.5 14.6252 13.5C14.4462 13.5 14.2745 13.5712 14.1479 13.6978C14.0213 13.8243 13.9502 13.996 13.9502 14.175V15.525C13.9502 15.7041 14.0213 15.8758 14.1479 16.0023C14.2745 16.1289 14.4462 16.2 14.6252 16.2C14.8042 16.2 14.9759 16.1289 15.1025 16.0023C15.2291 15.8758 15.3002 15.7041 15.3002 15.525V14.175ZM3.3752 13.5C3.55422 13.5 3.72591 13.5712 3.85249 13.6978C3.97908 13.8243 4.0502 13.996 4.0502 14.175V15.525C4.0502 15.7041 3.97908 15.8758 3.85249 16.0023C3.72591 16.1289 3.55422 16.2 3.3752 16.2C3.19617 16.2 3.02449 16.1289 2.8979 16.0023C2.77131 15.8758 2.7002 15.7041 2.7002 15.525V14.175C2.7002 13.996 2.77131 13.8243 2.8979 13.6978C3.02449 13.5712 3.19617 13.5 3.3752 13.5ZM4.0502 2.47505C4.0502 2.29603 3.97908 2.12434 3.85249 1.99775C3.72591 1.87116 3.55422 1.80005 3.3752 1.80005C3.19617 1.80005 3.02449 1.87116 2.8979 1.99775C2.77131 2.12434 2.7002 2.29603 2.7002 2.47505V7.42505C2.7002 7.60407 2.77131 7.77576 2.8979 7.90235C3.02449 8.02893 3.19617 8.10005 3.3752 8.10005C3.55422 8.10005 3.72591 8.02893 3.85249 7.90235C3.97908 7.77576 4.0502 7.60407 4.0502 7.42505V2.47505ZM9.0002 9.90005C9.17922 9.90005 9.35091 9.97116 9.47749 10.0978C9.60408 10.2243 9.6752 10.396 9.6752 10.575V15.525C9.6752 15.7041 9.60408 15.8758 9.47749 16.0023C9.35091 16.1289 9.17922 16.2 9.0002 16.2C8.82117 16.2 8.64949 16.1289 8.5229 16.0023C8.39631 15.8758 8.3252 15.7041 8.3252 15.525V10.575C8.3252 10.396 8.39631 10.2243 8.5229 10.0978C8.64949 9.97116 8.82117 9.90005 9.0002 9.90005ZM9.6752 2.47505C9.6752 2.29603 9.60408 2.12434 9.47749 1.99775C9.35091 1.87116 9.17922 1.80005 9.0002 1.80005C8.82117 1.80005 8.64949 1.87116 8.5229 1.99775C8.39631 2.12434 8.3252 2.29603 8.3252 2.47505V3.82505C8.3252 4.00407 8.39631 4.17576 8.5229 4.30235C8.64949 4.42893 8.82117 4.50005 9.0002 4.50005C9.17922 4.50005 9.35091 4.42893 9.47749 4.30235C9.60408 4.17576 9.6752 4.00407 9.6752 3.82505V2.47505ZM9.0002 5.40005C8.52281 5.40005 8.06497 5.58969 7.7274 5.92726C7.38984 6.26482 7.2002 6.72266 7.2002 7.20005C7.2002 7.67744 7.38984 8.13528 7.7274 8.47284C8.06497 8.81041 8.52281 9.00005 9.0002 9.00005C9.47759 9.00005 9.93542 8.81041 10.273 8.47284C10.6106 8.13528 10.8002 7.67744 10.8002 7.20005C10.8002 6.72266 10.6106 6.26482 10.273 5.92726C9.93542 5.58969 9.47759 5.40005 9.0002 5.40005ZM3.3752 9.00005C2.89781 9.00005 2.43997 9.18969 2.1024 9.52726C1.76484 9.86482 1.5752 10.3227 1.5752 10.8C1.5752 11.2774 1.76484 11.7353 2.1024 12.0728C2.43997 12.4104 2.89781 12.6 3.3752 12.6C3.85259 12.6 4.31042 12.4104 4.64799 12.0728C4.98555 11.7353 5.1752 11.2774 5.1752 10.8C5.1752 10.3227 4.98555 9.86482 4.64799 9.52726C4.31042 9.18969 3.85259 9.00005 3.3752 9.00005ZM14.6252 9.00005C14.1478 9.00005 13.69 9.18969 13.3524 9.52726C13.0148 9.86482 12.8252 10.3227 12.8252 10.8C12.8252 11.2774 13.0148 11.7353 13.3524 12.0728C13.69 12.4104 14.1478 12.6 14.6252 12.6C15.1026 12.6 15.5604 12.4104 15.898 12.0728C16.2356 11.7353 16.4252 11.2774 16.4252 10.8C16.4252 10.3227 16.2356 9.86482 15.898 9.52726C15.5604 9.18969 15.1026 9.00005 14.6252 9.00005Z" fill="url(#paint0_linear_168_560)"/>
<defs>
<linearGradient id="paint0_linear_168_560" x1="9.0002" y1="1.80005" x2="9.0002" y2="16.2" gradientUnits="userSpaceOnUse">
<stop stop-color="#1E82F8"/>
<stop offset="1" stop-color="#1E68F8"/>
</linearGradient>
</defs>
</svg>
