<svg width="32" height="32" viewBox="0 0 32 32" fill="none" xmlns="http://www.w3.org/2000/svg">
<rect width="32" height="32" rx="10" fill="#D4D5DB" fill-opacity="0.4"/>
<path d="M16 25.6875C21.3503 25.6875 25.6875 21.3503 25.6875 16C25.6875 10.6497 21.3503 6.3125 16 6.3125C10.6497 6.3125 6.3125 10.6497 6.3125 16C6.3125 21.3503 10.6497 25.6875 16 25.6875ZM11.961 22.6906L14.0474 20.6043C15.2898 21.1318 16.7086 21.1325 17.9526 20.6043L20.039 22.6906C17.5696 24.1875 14.4304 24.1875 11.961 22.6906ZM19.125 16C19.125 17.7231 17.7231 19.125 16 19.125C14.2769 19.125 12.875 17.7231 12.875 16C12.875 14.2769 14.2769 12.875 16 12.875C17.7231 12.875 19.125 14.2769 19.125 16ZM22.6906 20.039L20.6043 17.9526C21.1318 16.7102 21.1325 15.2914 20.6043 14.0474L22.6906 11.961C24.1875 14.4304 24.1875 17.5696 22.6906 20.039ZM20.0389 9.30938L17.9526 11.3957C16.7102 10.8682 15.2913 10.8675 14.0474 11.3957L11.961 9.30938C14.4304 7.81254 17.5696 7.81254 20.0389 9.30938ZM9.30938 11.961L11.3957 14.0474C10.8682 15.2898 10.8675 16.7086 11.3957 17.9526L9.30938 20.039C7.81254 17.5696 7.81254 14.4304 9.30938 11.961Z" fill="#2D3748"/>
</svg>
