<svg width="14" height="14" viewBox="0 0 14 14" fill="none" xmlns="http://www.w3.org/2000/svg">
<path fill-rule="evenodd" clip-rule="evenodd" d="M3.99366 10.2971C4.73216 10.7579 5.6095 10.9854 6.41683 11.0572V12.2501C6.41683 12.4048 6.47829 12.5532 6.58768 12.6626C6.69708 12.772 6.84545 12.8334 7.00016 12.8334C7.15487 12.8334 7.30325 12.772 7.41264 12.6626C7.52204 12.5532 7.5835 12.4048 7.5835 12.2501V11.0572C8.39025 10.9848 9.26816 10.7573 10.0067 10.2971C10.9569 9.705 11.6668 8.72675 11.6668 7.29175C11.6668 5.78441 10.8432 4.27008 9.9285 3.16466C9.46416 2.6035 8.95433 2.1205 8.47075 1.77341C8.01575 1.44616 7.48608 1.16675 7.00016 1.16675C6.51425 1.16675 5.98516 1.44616 5.52958 1.77341C5.04541 2.12108 4.53558 2.6035 4.07125 3.16466C3.15775 4.2695 2.3335 5.78441 2.3335 7.29175C2.3335 8.72675 3.04341 9.705 3.99366 10.2971ZM4.97016 3.90841C4.13483 4.91758 3.50016 6.17408 3.50016 7.29175C3.50016 8.27291 3.95691 8.89941 4.61083 9.30716C5.13175 9.6315 5.78158 9.81583 6.41683 9.88466V8.40883L5.42108 7.4125C5.36537 7.35869 5.32093 7.29432 5.29035 7.22315C5.25978 7.15198 5.24369 7.07544 5.24302 6.99798C5.24234 6.92053 5.2571 6.84371 5.28643 6.77202C5.31576 6.70034 5.35908 6.63521 5.41385 6.58043C5.46862 6.52566 5.53375 6.48235 5.60544 6.45302C5.67713 6.42369 5.75394 6.40893 5.8314 6.4096C5.90885 6.41027 5.9854 6.42637 6.05657 6.45694C6.12773 6.48751 6.1921 6.53195 6.24591 6.58766L6.9255 7.26725L7.98366 5.78558C8.02821 5.72323 8.0846 5.67025 8.14962 5.62969C8.21463 5.58913 8.287 5.56177 8.36259 5.54918C8.43819 5.53658 8.51552 5.539 8.59017 5.55629C8.66483 5.57358 8.73535 5.60541 8.7977 5.64996C8.86006 5.6945 8.91303 5.75089 8.95359 5.81591C8.99416 5.88093 9.02152 5.9533 9.03411 6.02889C9.0467 6.10448 9.04429 6.18181 9.02699 6.25647C9.0097 6.33112 8.97787 6.40164 8.93333 6.464L7.5835 8.354V9.88466C8.21933 9.81583 8.86858 9.6315 9.3895 9.30716C10.0434 8.89883 10.5002 8.27291 10.5002 7.29175C10.5002 6.17408 9.8655 4.91758 9.03016 3.90841C8.61891 3.41258 8.18083 3.00133 7.79 2.72075C7.37 2.41858 7.09758 2.33341 7.00016 2.33341C6.90275 2.33341 6.63033 2.41858 6.21033 2.72075C5.8195 3.00133 5.38141 3.412 4.97016 3.90841Z" fill="white"/>
</svg>
